<?xml version="1.0" encoding="UTF-8" standalone="no"?>
<svg
   id="Layer_1"
   data-name="Layer 1"
   viewBox="0 0 180 26"
   version="1.1"
   sodipodi:docname="logo.svg"
   xml:space="preserve"
   inkscape:version="1.3.2 (091e20e, 2023-11-25, custom)"
   width="90"
   height="13"
   xmlns:inkscape="http://www.inkscape.org/namespaces/inkscape"
   xmlns:sodipodi="http://sodipodi.sourceforge.net/DTD/sodipodi-0.dtd"
   xmlns="http://www.w3.org/2000/svg"
   xmlns:svg="http://www.w3.org/2000/svg"
   xmlns:rdf="http://www.w3.org/1999/02/22-rdf-syntax-ns#"
   xmlns:cc="http://creativecommons.org/ns#"
   xmlns:dc="http://purl.org/dc/elements/1.1/"><sodipodi:namedview
     id="namedview6"
     pagecolor="#ffffff"
     bordercolor="#000000"
     borderopacity="0.25"
     inkscape:showpageshadow="2"
     inkscape:pageopacity="0.0"
     inkscape:pagecheckerboard="0"
     inkscape:deskcolor="#d1d1d1"
     showguides="true"
     inkscape:zoom="5.6568543"
     inkscape:cx="68.589358"
     inkscape:cy="-15.291184"
     inkscape:window-width="1920"
     inkscape:window-height="991"
     inkscape:window-x="-9"
     inkscape:window-y="-9"
     inkscape:window-maximized="1"
     inkscape:current-layer="Layer_1"><sodipodi:guide
       position="-31.190036,-40.297048"
       orientation="0,-1"
       id="guide12"
       inkscape:locked="false" /><sodipodi:guide
       position="-31.402214,-119.65129"
       orientation="0,-1"
       id="guide13"
       inkscape:locked="false" /><sodipodi:guide
       position="-19.095941,-62.575646"
       orientation="1,0"
       id="guide14"
       inkscape:locked="false" /><sodipodi:guide
       position="-4.0313654,-68.304428"
       orientation="1,0"
       id="guide15"
       inkscape:locked="false" /><sodipodi:guide
       position="9.1236162,-78.913284"
       orientation="1,0"
       id="guide16"
       inkscape:locked="false" /></sodipodi:namedview><defs
     id="defs1"><style
       id="style1">.cls-1{fill:#ff5574;}.cls-2{fill:#ffc043;}.cls-3{fill:#6168ff;}.cls-4{fill:#222;}</style></defs><title
     id="title1">logo</title><path
     id="text35"
     style="font-style:normal;font-variant:normal;font-weight:normal;font-stretch:normal;font-size:11.9758px;font-family:'Ink Free';-inkscape-font-specification:'Ink Free';text-align:center;letter-spacing:1.79637px;text-anchor:middle;fill:none;fill-opacity:1;stroke:#cccccc;stroke-width:0.0898183;stroke-dasharray:none"
     d="m 102.41602,5.7324219 c -0.17565,0 -0.29551,0.080557 -0.35938,0.2402343 -0.0559,0.1357256 -0.0952,0.291152 -0.11914,0.4667969 -0.016,0.1676611 -0.0254,0.4073795 -0.0254,0.71875 0,0.1916126 0.009,0.4706332 0.0254,0.8378907 0.016,0.2714511 0.0234,0.490542 0.0234,0.6582031 -0.19162,0.031935 -0.55493,0.099335 -1.08985,0.203125 -0.0639,0.015968 -0.21182,0.0478 -0.44336,0.095703 -0.23153,0.039919 -0.40758,0.060547 -0.527339,0.060547 -0.167661,0 -0.287521,0.01494 -0.359375,0.046875 -0.07185,0.031935 -0.107422,0.1012879 -0.107422,0.2050781 0,0.095806 0.04126,0.1706755 0.121094,0.2265625 0.08782,0.055887 0.179584,0.083984 0.27539,0.083984 0.07984,0 0.330762,-0.043037 0.753902,-0.1308594 0.47105,-0.1037902 0.92986,-0.1918171 1.37696,-0.2636719 0,0.4071768 0.004,0.8304198 0.0117,1.2695318 0.016,0.431128 0.0366,0.80938 0.0605,1.136719 0.0239,0.367257 0.0558,0.702472 0.0957,1.005859 0.0479,0.303387 0.0947,0.511273 0.14257,0.623047 0.024,0.06387 0.0521,0.108861 0.084,0.132812 0.0319,0.03194 0.0732,0.04687 0.12109,0.04687 0.0878,0 0.17959,-0.03557 0.27539,-0.107422 0.10379,-0.06387 0.1543,-0.135005 0.1543,-0.214843 -0.008,-0.03194 -0.051,-0.172423 -0.13086,-0.419922 -0.0798,-0.2475 -0.13603,-0.603343 -0.16797,-1.066406 -0.0239,-0.343306 -0.0446,-0.742186 -0.0605,-1.197266 -0.008,-0.4550803 -0.0117,-0.8895273 -0.0117,-1.3046879 l 0.77929,-0.1328125 c 0.0878,-0.015968 0.49791,-0.087102 1.23243,-0.2148438 0.30338,-0.039919 0.51127,-0.096114 0.62304,-0.1679687 0.11976,-0.071855 0.17969,-0.1748213 0.17969,-0.3105469 0,-0.1037901 -0.0468,-0.2049749 -0.14258,-0.3007812 -0.0878,-0.1037902 -0.17585,-0.1542969 -0.26367,-0.1542969 -0.0479,0 -0.0966,0.046772 -0.14453,0.1425781 -0.0399,0.095806 -0.0924,0.1520011 -0.15625,0.1679688 -1.06186,0.2395157 -1.77159,0.3874723 -2.13086,0.4433594 L 102.5,8.234375 c -0.016,-0.3672575 -0.0234,-0.6987379 -0.0234,-0.9941406 0,-0.3832252 0.0187,-0.6903431 0.0586,-0.921875 0.0399,-0.2315319 0.0605,-0.3700656 0.0605,-0.4179688 0,-0.063871 -0.0112,-0.1088609 -0.0351,-0.1328125 -0.0239,-0.023952 -0.0727,-0.035156 -0.14453,-0.035156 z M 58.25,7.3613281 c -0.263467,0 -0.639938,0.091762 -1.126953,0.2753907 -0.487015,0.1836287 -0.917728,0.4345519 -1.292969,0.7539062 -0.375241,0.3193543 -0.5625,0.6714623 -0.5625,1.0546875 0,0.2155642 0.08803,0.395353 0.263672,0.5390625 0.175645,0.135726 0.40594,0.249897 0.693359,0.345703 0.295403,0.08782 0.707441,0.192742 1.234375,0.3125 0.479032,0.111774 0.817982,0.199801 1.017578,0.263672 0.207581,0.05589 0.3799,0.147649 0.515626,0.275391 0.135725,0.127741 0.203124,0.298107 0.203124,0.513671 10e-7,0.223549 -0.108654,0.43517 -0.324218,0.634766 -0.215564,0.199597 -0.494585,0.364446 -0.837891,0.492188 -0.335322,0.119758 -0.670537,0.179687 -1.005859,0.179687 -0.14371,0 -0.267304,-0.01689 -0.371094,-0.04883 -0.09581,-0.03194 -0.142578,-0.06377 -0.142578,-0.0957 0,-0.02395 0.01867,-0.05205 0.05859,-0.08398 0.03992,-0.03194 0.06055,-0.06377 0.06055,-0.0957 10e-7,-0.03992 -0.04872,-0.05859 -0.144531,-0.05859 -0.06387,0 -0.187465,0.09176 -0.371093,0.27539 -0.183629,0.175645 -0.275391,0.299239 -0.275391,0.371094 0,0.111774 0.05993,0.199801 0.179687,0.263672 0.119758,0.06387 0.352007,0.0957 0.695313,0.0957 0.502983,0 0.986155,-0.101185 1.449219,-0.300781 0.463063,-0.191613 0.833846,-0.446271 1.113281,-0.765625 0.287419,-0.327338 0.431641,-0.666289 0.431641,-1.017578 -10e-7,-0.367258 -0.16485,-0.642544 -0.492188,-0.826172 -0.327338,-0.183629 -0.797352,-0.348478 -1.412109,-0.492188 -0.05589,-0.01597 -0.119552,-0.02717 -0.191407,-0.03516 -0.07185,-0.01597 -0.144942,-0.0366 -0.216796,-0.06055 -0.59879,-0.1357255 -1.008874,-0.2461618 -1.232422,-0.3339842 -0.215565,-0.095806 -0.324219,-0.2400281 -0.324219,-0.4316407 0,-0.2954027 0.140487,-0.548279 0.419922,-0.7558593 0.279435,-0.2075804 0.590288,-0.3630068 0.933593,-0.4667969 0.343306,-0.1037902 0.59423,-0.1542969 0.753907,-0.1542969 0.05589,0 0.112081,0.018674 0.167969,0.058594 0.05589,0.031935 0.108346,0.048828 0.15625,0.048828 0.127741,0 0.223238,-0.056195 0.287109,-0.1679688 0.06387,-0.1197579 0.0957,-0.2284124 0.0957,-0.3242187 0,-0.1596772 -0.134799,-0.2382813 -0.40625,-0.2382813 z m 38.119141,0.035156 c -0.207581,0 -0.447299,0.1198592 -0.71875,0.359375 -0.263468,0.2315319 -0.535018,0.570482 -0.814453,1.0175781 -0.279436,0.4470961 -0.539782,0.9789929 -0.779297,1.5937508 V 8.4628906 c 0,-0.3273382 -0.01494,-0.5464291 -0.04687,-0.6582031 C 93.985814,7.6849296 93.905257,7.625 93.769531,7.625 c -0.223548,0 -0.335937,0.091762 -0.335937,0.2753906 0,0.2954028 0.01316,0.7860445 0.03711,1.4726563 0.01597,0.4550799 0.02344,0.8464901 0.02344,1.1738281 0.008,0.327338 0.01545,0.578261 0.02344,0.753906 0.008,0.694596 0.03235,1.226493 0.07227,1.59375 0.03992,0.359274 0.127946,0.539063 0.263672,0.539063 0.127741,0 0.215768,-0.04499 0.263672,-0.132813 0.0479,-0.07984 0.07227,-0.175335 0.07227,-0.287109 l -0.03711,-0.478516 c -0.008,-0.135725 -0.02292,-0.343612 -0.04687,-0.623047 -0.01597,-0.279435 -0.02913,-0.511683 -0.03711,-0.695312 0.375242,-0.926128 0.759182,-1.692055 1.150391,-2.2988282 0.391209,-0.6147571 0.702062,-0.921875 0.933594,-0.921875 0.09581,-10e-8 0.187568,0.028097 0.27539,0.083984 0.09581,0.055887 0.172629,0.1232864 0.228516,0.203125 0.06387,0.087822 0.120066,0.1552219 0.167969,0.203125 0.05589,0.047903 0.110128,0.072266 0.166015,0.072266 0.07185,-1e-7 0.156147,-0.043037 0.251954,-0.1308594 0.10379,-0.095806 0.15625,-0.1800984 0.15625,-0.2519532 0,-0.111774 -0.04873,-0.2278983 -0.144532,-0.3476562 C 97.1581,7.7003833 97.030771,7.5954636 96.871094,7.515625 96.711417,7.4357864 96.544786,7.3964844 96.369141,7.3964841 Z m -29.976563,0.048828 c -0.03194,0 -0.06003,0.031832 -0.08398,0.095703 -0.02395,0.055887 -0.04831,0.1513838 -0.07227,0.2871094 -0.07984,0.3353221 -0.150973,0.5825103 -0.214844,0.7421875 -0.183628,0.4710476 -0.451444,1.0253538 -0.802734,1.664063 -0.35129,0.638709 -0.705179,1.191233 -1.064453,1.654297 -0.35129,0.45508 -0.632264,0.68164 -0.839844,0.68164 -0.175645,0 -0.263672,-0.314587 -0.263672,-0.945312 0,-0.942095 0.08056,-1.6930835 0.240235,-2.2519536 0.159677,-0.5588701 0.346935,-1.0383071 0.5625,-1.4375 0.07984,-0.1437095 0.121093,-0.2354714 0.121093,-0.2753907 0,-0.079839 -0.101184,-0.1191406 -0.300781,-0.1191406 -0.07185,0 -0.135519,0.031832 -0.191406,0.095703 -0.05589,0.055887 -0.123287,0.1663233 -0.203125,0.3339843 -0.191613,0.3752414 -0.363932,0.9240309 -0.515625,1.6425781 -0.14371,0.7185475 -0.214844,1.3608805 -0.214844,1.9277345 0,0.606773 0.0393,1.04869 0.119141,1.328125 0.08782,0.279435 0.263876,0.419921 0.527343,0.419921 0.255484,0 0.583229,-0.250923 0.982422,-0.753906 0.407177,-0.502983 0.809792,-1.106014 1.208985,-1.808594 0.399193,-0.702579 0.71378,-1.3299723 0.945312,-1.8808586 0.008,0.1197579 0.01367,0.2677145 0.01367,0.4433594 0,0.167661 0.0037,0.3362452 0.01172,0.5039063 0.01597,1.0458849 0.04033,1.7387249 0.07227,2.0820309 0.03194,0.359274 0.110539,0.707647 0.238281,1.042969 0.135725,0.335322 0.283682,0.501953 0.443359,0.501953 0.127742,0 0.226974,-0.03557 0.298828,-0.107422 0.07185,-0.07185 0.107422,-0.171086 0.107422,-0.298828 0,-0.02395 -0.0393,-0.08388 -0.11914,-0.179688 -0.07984,-0.10379 -0.164131,-0.244277 -0.251954,-0.419922 -0.07984,-0.175644 -0.13408,-0.419098 -0.166015,-0.730468 -0.03992,-0.359274 -0.07744,-1.001607 -0.109375,-1.9277343 -0.02395,-0.9341115 -0.03516,-1.5933373 -0.03516,-1.9765625 -10e-7,-0.079839 -0.05246,-0.1547078 -0.15625,-0.2265625 C 66.575896,7.4808787 66.4804,7.4453118 66.392577,7.4453118 Z m 5.042969,0.1308594 c -0.127742,0 -0.215769,0.024362 -0.263672,0.072266 -0.03992,0.047903 -0.08491,0.1359301 -0.132813,0.2636719 -0.143709,-0.015968 -0.254145,-0.04033 -0.333984,-0.072266 l -0.144531,-0.072266 c -0.127742,-0.063871 -0.236396,-0.095703 -0.324219,-0.095703 -0.07984,0 -0.11914,0.1049197 -0.11914,0.3125 0,0.1037902 0.04499,0.1823942 0.132812,0.2382812 0.09581,0.055887 0.24181,0.097142 0.441406,0.1210938 0.199597,0.015968 0.332614,0.027172 0.396485,0.035156 l 0.01172,3.3886716 c -0.111774,0 -0.248526,-0.02436 -0.408203,-0.07227 -0.159677,-0.0479 -0.255174,-0.07031 -0.287109,-0.07031 -0.09581,0 -0.142578,0.0955 -0.142578,0.287109 0,0.263468 0.0955,0.394532 0.287109,0.394532 0.10379,0 0.206757,-0.0037 0.310547,-0.01172 0.111774,-0.008 0.188596,-0.01172 0.228516,-0.01172 l -0.01172,1.675781 c 0,0.287419 0.0037,0.572128 0.01172,0.851563 0.01597,0.287419 0.02717,0.49904 0.03516,0.634765 0.01597,0.103791 0.09652,0.154297 0.240234,0.154297 0.10379,0 0.182394,-0.04677 0.238281,-0.142578 0.05589,-0.08782 0.08398,-0.196477 0.08398,-0.324219 0,-0.05589 -0.0075,-0.155118 -0.02344,-0.298828 -0.03992,-0.375241 -0.06055,-0.791013 -0.06055,-1.246093 0,-0.343306 0.0094,-0.785223 0.02539,-1.328125 1.181611,-0.08782 2.138532,-0.288239 2.873047,-0.59961 0.734515,-0.31137 1.101562,-0.749552 1.101562,-1.316406 0,-0.3991927 -0.230295,-0.7681934 -0.693359,-1.1035154 -0.45508,-0.3353221 -0.998181,-0.6106077 -1.628906,-0.8261719 -0.622741,-0.223548 -1.182735,-0.3715046 -1.677735,-0.4433594 0,-0.055887 0.01316,-0.1101286 0.03711,-0.1660156 0.02395,-0.063871 0.03516,-0.1088609 0.03516,-0.1328125 0,-0.063871 -0.0786,-0.095703 -0.238281,-0.095703 z m 8.035156,0 c -0.127742,0 -0.215769,0.024362 -0.263672,0.072266 -0.03992,0.047903 -0.08491,0.1359301 -0.132812,0.2636719 -0.14371,-0.015968 -0.254146,-0.04033 -0.333985,-0.072266 L 78.595703,7.7675781 C 78.467961,7.7037073 78.36126,7.671875 78.273438,7.671875 c -0.07984,0 -0.121094,0.1049197 -0.121094,0.3125 0,0.1037902 0.04499,0.1823942 0.132812,0.2382812 0.09581,0.055887 0.243763,0.097142 0.44336,0.1210938 0.199596,0.015968 0.33066,0.027172 0.394531,0.035156 l 0.01172,3.388672 c -0.111774,0 -0.246573,-0.02436 -0.40625,-0.07227 -0.159678,-0.0479 -0.255174,-0.07031 -0.28711,-0.07031 -0.09581,0 -0.144531,0.0955 -0.144531,0.287109 0,0.263468 0.0955,0.394532 0.287109,0.394532 0.103791,0 0.20871,-0.0037 0.3125,-0.01172 0.111774,-0.008 0.186644,-0.01172 0.226563,-0.01172 l -0.01172,1.675781 c 0,0.287419 0.0037,0.572128 0.01172,0.851563 0.01597,0.287419 0.02717,0.49904 0.03516,0.634765 0.01597,0.103791 0.09652,0.154297 0.240235,0.154297 0.10379,0 0.184347,-0.04677 0.240234,-0.142578 0.05589,-0.08782 0.08398,-0.196477 0.08398,-0.324219 0,-0.05589 -0.0094,-0.155118 -0.02539,-0.298828 -0.03992,-0.375241 -0.05859,-0.791013 -0.05859,-1.246093 0,-0.343306 0.0075,-0.785223 0.02344,-1.328125 1.181611,-0.08782 2.140485,-0.288239 2.875,-0.59961 0.734515,-0.31137 1.101563,-0.749552 1.101563,-1.316406 0,-0.3991931 -0.232249,-0.7681938 -0.695313,-1.1035158 C 82.488287,8.9049081 81.945186,8.6296225 81.314461,8.4140583 80.69172,8.1905103 80.133679,8.0425537 79.63868,7.9706989 c 0,-0.055887 0.01121,-0.1101286 0.03516,-0.1660156 0.02395,-0.063871 0.03516,-0.1088609 0.03516,-0.1328125 0,-0.063871 -0.0786,-0.095703 -0.238281,-0.095703 z m 8.550781,0.2519531 c -0.159677,0 -0.311368,0.056195 -0.455078,0.1679688 -0.143709,0.1037901 -0.276726,0.2592165 -0.396484,0.4667968 -0.111774,0.1995965 -0.175439,0.3157208 -0.191406,0.3476563 -0.255484,0.447096 -0.453947,0.9526773 -0.597657,1.5195315 -0.135725,0.566854 -0.203125,1.042556 -0.203125,1.425781 0,0.439113 0.127329,0.80616 0.382813,1.101563 0.255483,0.295403 0.650628,0.443359 1.185547,0.443359 0.542902,0 1.026074,-0.144221 1.449218,-0.43164 0.423145,-0.295403 0.75089,-0.645558 0.982422,-1.052735 0.231532,-0.407177 0.345704,-0.766754 0.345704,-1.078125 -10e-7,-0.367257 -0.106702,-0.687533 -0.322266,-0.9589845 C 89.985608,9.5078457 89.717792,9.241983 89.398438,8.9785156 89.23876,8.84279 89.158203,8.7622328 89.158203,8.7382812 c 0,-0.023951 0.01316,-0.052049 0.03711,-0.083984 0.03194,-0.039919 0.04688,-0.068017 0.04688,-0.083984 0,-0.031935 -0.01494,-0.052563 -0.04688,-0.060547 -0.03194,-0.015968 -0.101287,-0.023437 -0.205078,-0.023437 -0.183628,0 -0.34279,0.031832 -0.478515,0.095703 -0.135726,0.055887 -0.203125,0.1327094 -0.203125,0.2285157 0,0.063871 0.04873,0.1424749 0.144531,0.2382812 0.09581,0.095806 0.247498,0.2194005 0.455078,0.3710938 0.319354,0.2315319 0.570278,0.4525759 0.753906,0.6601561 0.183629,0.20758 0.275391,0.451034 0.275391,0.730469 0,0.247499 -0.09176,0.522785 -0.275391,0.826172 -0.183628,0.295403 -0.430817,0.546326 -0.742187,0.753906 -0.303387,0.20758 -0.634867,0.310547 -0.994141,0.310547 -0.76645,0 -1.15039,-0.314588 -1.15039,-0.945313 0,-0.471047 0.05993,-0.905494 0.179687,-1.304687 0.127742,-0.399193 0.303796,-0.8037608 0.527344,-1.2109376 0.167661,-0.3193544 0.386752,-0.6414118 0.658203,-0.96875 0.02395,-0.031935 0.05578,-0.076925 0.0957,-0.1328125 0.0479,-0.063871 0.07227,-0.1031729 0.07227,-0.1191407 0,-0.055887 -0.03183,-0.098924 -0.0957,-0.1308593 -0.05589,-0.039919 -0.119552,-0.060547 -0.191407,-0.060547 z M 71.578125,8.4277344 c 0.494999,0.079839 1.010003,0.2071676 1.544922,0.3828125 0.542902,0.1756449 1.005447,0.3984707 1.388672,0.6699219 0.383225,0.2714511 0.576172,0.5748342 0.576172,0.9101562 0,0.255483 -0.189212,0.491467 -0.564453,0.707031 -0.367258,0.207581 -0.822333,0.374212 -1.365235,0.501953 -0.542902,0.119758 -1.052218,0.179688 -1.53125,0.179688 0,-0.2475 -0.0037,-0.749346 -0.01172,-1.507813 -0.008,-0.76645 -0.02114,-1.3806858 -0.03711,-1.8437496 z m 8.035156,0 c 0.494999,0.079839 1.010004,0.2071676 1.544922,0.3828125 0.542902,0.1756449 1.0074,0.3984707 1.390625,0.6699219 0.383225,0.2714511 0.574219,0.5748342 0.574219,0.9101562 0,0.255483 -0.187259,0.491467 -0.5625,0.707031 -0.367258,0.207581 -0.822332,0.374212 -1.365235,0.501953 -0.542902,0.119758 -1.054171,0.179688 -1.533203,0.179688 0,-0.2475 -0.0037,-0.749346 -0.01172,-1.507813 -0.008,-0.76645 -0.02114,-1.3806858 -0.03711,-1.8437496 z m 31.962889,4.6855466 c -0.20375,0 -0.34674,0.106117 -0.43164,0.31836 -0.0764,0.212243 -0.11846,0.441298 -0.12695,0.6875 -0.017,0.687667 -0.039,1.711956 -0.0645,3.070312 -0.017,1.358356 -0.0306,2.517224 -0.0391,3.476563 0,0.492404 0.044,0.861219 0.12891,1.107422 0.0934,0.237712 0.19109,0.357421 0.29297,0.357421 0.13583,0 0.25877,-0.02719 0.36914,-0.07813 0.11036,-0.05094 0.16406,-0.118227 0.16406,-0.203125 0,-0.01698 -0.0621,-0.178745 -0.18945,-0.484375 C 111.56083,21.059604 111.5,20.771671 111.5,20.5 c 0,-2.122431 0.0777,-4.300405 0.23047,-6.533203 v -0.242188 c 0.008,-0.05094 0.0117,-0.0794 0.0117,-0.08789 0,-0.203754 -0.0116,-0.340286 -0.0371,-0.408203 -0.017,-0.07641 -0.061,-0.115235 -0.12891,-0.115235 z m -15.267576,1.121094 c -0.186774,0 -0.314895,0.08411 -0.382813,0.253906 -0.05943,0.144326 -0.101484,0.311273 -0.126953,0.498047 -0.01698,0.178284 -0.02539,0.432573 -0.02539,0.763672 0,0.203753 0.0084,0.500098 0.02539,0.890625 0.01698,0.288651 0.02539,0.522888 0.02539,0.701172 -0.203754,0.03396 -0.589392,0.10643 -1.158203,0.216797 -0.06792,0.01698 -0.226455,0.05062 -0.472657,0.101562 -0.246202,0.04245 -0.431248,0.06445 -0.558593,0.06445 -0.178285,0 -0.306405,0.01682 -0.382813,0.05078 -0.07641,0.03396 -0.115234,0.10643 -0.115234,0.216797 0,0.101876 0.04206,0.180806 0.126953,0.240234 0.09339,0.05943 0.191092,0.08984 0.292969,0.08984 0.0849,0 0.352779,-0.04724 0.802734,-0.140625 0.500894,-0.110367 0.989419,-0.20289 1.464844,-0.279297 0,0.432976 0.0052,0.882674 0.01367,1.349609 0.01698,0.458445 0.03703,0.860906 0.0625,1.208985 0.02547,0.390527 0.05911,0.747702 0.101562,1.070312 0.05094,0.32261 0.103359,0.543253 0.154297,0.662109 0.02547,0.06792 0.05393,0.115156 0.08789,0.140625 0.03396,0.03396 0.07601,0.05078 0.126953,0.05078 0.09339,0 0.191092,-0.03883 0.292968,-0.115235 0.110367,-0.06792 0.166016,-0.143618 0.166016,-0.228515 -0.0085,-0.03396 -0.05573,-0.182131 -0.140625,-0.445313 -0.0849,-0.263181 -0.143775,-0.642361 -0.177734,-1.134765 -0.02547,-0.365059 -0.04552,-0.789524 -0.0625,-1.273438 -0.0085,-0.483914 -0.01367,-0.945253 -0.01367,-1.386719 l 0.828125,-0.140625 c 0.09339,-0.01698 0.529492,-0.09268 1.310547,-0.228515 0.322609,-0.04245 0.543253,-0.10328 0.662109,-0.179688 0.127346,-0.07641 0.191406,-0.185753 0.191406,-0.330078 0,-0.110366 -0.05047,-0.216483 -0.152343,-0.318359 -0.09339,-0.110367 -0.18591,-0.166016 -0.279297,-0.166016 -0.05094,0 -0.103359,0.05047 -0.154297,0.152344 -0.04245,0.101876 -0.09614,0.162708 -0.164063,0.179687 -1.129133,0.254692 -1.88554,0.411275 -2.267578,0.470703 l -0.01367,-0.34375 c -0.01698,-0.390527 -0.02539,-0.74252 -0.02539,-1.05664 0,-0.407507 0.022,-0.734267 0.06445,-0.980469 0.04245,-0.246202 0.06445,-0.396327 0.06445,-0.447266 0,-0.06792 -0.01359,-0.113202 -0.03906,-0.138671 -0.02547,-0.02547 -0.07594,-0.03906 -0.152344,-0.03906 z m -6.431641,1.769531 c -0.220733,0 -0.475021,0.128121 -0.763672,0.382813 -0.280161,0.246202 -0.568094,0.606606 -0.865234,1.082031 -0.29714,0.475425 -0.573433,1.039651 -0.828125,1.693359 v -2.023437 c 0,-0.348079 -0.01682,-0.582316 -0.05078,-0.701172 -0.02547,-0.127346 -0.111534,-0.191406 -0.25586,-0.191406 -0.237712,0 -0.355469,0.09771 -0.355469,0.292968 0,0.31412 0.01164,0.83629 0.03711,1.566407 0.01698,0.483914 0.02539,0.899968 0.02539,1.248047 0.0085,0.348078 0.0169,0.61596 0.02539,0.802734 0.0085,0.738606 0.03372,1.302832 0.07617,1.693359 0.04245,0.382038 0.136925,0.574219 0.28125,0.574219 0.135836,0 0.228359,-0.04724 0.279297,-0.140625 0.05094,-0.0849 0.07617,-0.187784 0.07617,-0.306641 l -0.03711,-0.509765 c -0.0085,-0.144325 -0.02531,-0.364969 -0.05078,-0.662109 -0.01698,-0.297141 -0.03057,-0.543018 -0.03906,-0.738282 0.399017,-0.984808 0.806659,-1.800093 1.222656,-2.445312 0.415996,-0.653709 0.747938,-0.980469 0.994141,-0.980469 0.101876,0 0.199581,0.03042 0.292968,0.08984 0.101877,0.05943 0.18276,0.131899 0.242188,0.216797 0.06792,0.09339 0.126796,0.165858 0.177734,0.216796 0.05943,0.05094 0.118306,0.07617 0.177734,0.07617 0.07641,0 0.165702,-0.04724 0.267579,-0.140625 0.110366,-0.101876 0.166015,-0.19117 0.166015,-0.267578 0,-0.118856 -0.05047,-0.241795 -0.152344,-0.36914 -0.101876,-0.135836 -0.238408,-0.245181 -0.408203,-0.330079 -0.169794,-0.0849 -0.348382,-0.128906 -0.535156,-0.128906 z m 16.160157,0.03906 c -0.14433,0 -0.30932,0.04724 -0.49609,0.140625 -0.18678,0.0849 -0.43784,0.253121 -0.75196,0.507812 -0.47542,0.390528 -0.95035,0.892646 -1.42578,1.503906 -0.47542,0.602771 -0.86624,1.200642 -1.17187,1.794922 -0.30563,0.585791 -0.45899,1.049083 -0.45899,1.388672 0,0.271671 0.0725,0.492315 0.2168,0.66211 0.15281,0.169794 0.36505,0.253906 0.63672,0.253906 0.56032,0 1.09608,-0.20705 1.60547,-0.623047 0.50938,-0.424486 0.92866,-0.874185 1.25976,-1.349609 0.3311,-0.475425 0.68828,-1.036422 1.07031,-1.681641 0.10188,0.0849 0.15235,0.224658 0.15235,0.419922 l -0.0117,0.484375 c -0.0255,1.018767 -0.0391,1.630231 -0.0391,1.833984 0,0.237713 0.0388,0.444763 0.11523,0.623047 0.0764,0.178284 0.18575,0.267578 0.33008,0.267578 0.0849,0 0.17096,-0.06406 0.25586,-0.191406 0.0849,-0.135836 0.12695,-0.253592 0.12695,-0.355469 0,-0.04245 -0.0304,-0.09292 -0.0898,-0.152344 -0.0594,-0.06792 -0.0931,-0.131978 -0.10156,-0.191406 -0.008,-0.152815 -0.0169,-0.361818 -0.0254,-0.625 -0.008,-0.263181 -0.0169,-0.534292 -0.0254,-0.814453 -0.008,-0.271671 -0.0221,-0.615253 -0.0391,-1.03125 -0.008,-0.415996 -0.0169,-0.692289 -0.0254,-0.828125 -0.017,-0.229222 -0.0707,-0.34375 -0.16406,-0.34375 l -0.2168,0.06445 c 0.14433,-0.237712 0.2168,-0.488771 0.2168,-0.751953 0,-0.195264 -0.0524,-0.368669 -0.1543,-0.521484 -0.10187,-0.152815 -0.22481,-0.272525 -0.36914,-0.357422 -0.14432,-0.0849 -0.28409,-0.126953 -0.41992,-0.126953 z m -34.128907,0.152343 c -0.135835,0 -0.228358,0.02523 -0.279297,0.07617 -0.04245,0.05094 -0.08969,0.145415 -0.140625,0.28125 -0.152815,-0.01698 -0.270571,-0.04221 -0.355469,-0.07617 l -0.154296,-0.07812 c -0.135836,-0.06792 -0.250363,-0.101563 -0.34375,-0.101563 -0.0849,0 -0.126954,0.111298 -0.126954,0.332031 0,0.110367 0.04724,0.194478 0.140626,0.253906 0.101876,0.05943 0.25846,0.101484 0.470703,0.126954 0.212243,0.01698 0.352004,0.03057 0.419921,0.03906 l 0.01367,3.603516 c -0.118856,0 -0.263799,-0.02523 -0.433593,-0.07617 C 70.949346,20.525234 70.848412,20.5 70.814453,20.5 c -0.101877,0 -0.154297,0.100934 -0.154297,0.304688 0,0.28016 0.102887,0.421874 0.306641,0.421874 0.110366,10e-7 0.219712,-0.0052 0.330078,-0.01367 0.118856,-0.0085 0.199739,-0.01172 0.242187,-0.01172 l -0.01172,1.78125 c 0,0.30563 0.0032,0.607156 0.01172,0.904297 0.01698,0.30563 0.03057,0.531456 0.03906,0.675781 0.01698,0.110366 0.101091,0.166016 0.253906,0.166016 0.110367,0 0.196432,-0.05242 0.25586,-0.154297 0.05943,-0.09339 0.08789,-0.207915 0.08789,-0.34375 0,-0.05943 -0.0084,-0.165545 -0.02539,-0.31836 -0.04245,-0.399017 -0.0625,-0.840304 -0.0625,-1.324218 0,-0.365059 0.0084,-0.834808 0.02539,-1.41211 1.25648,-0.09339 2.273633,-0.305619 3.054688,-0.636719 0.781054,-0.331099 1.171875,-0.799573 1.171875,-1.402343 0,-0.424486 -0.245877,-0.815307 -0.738282,-1.171875 -0.483914,-0.356569 -1.061733,-0.647731 -1.732421,-0.876953 -0.662199,-0.237713 -1.254887,-0.396249 -1.78125,-0.472657 0,-0.05943 0.01164,-0.118306 0.03711,-0.177734 0.02547,-0.06792 0.03906,-0.115156 0.03906,-0.140625 10e-7,-0.06792 -0.08606,-0.101563 -0.255859,-0.101563 z m 9.09375,0.267579 c -0.169794,0 -0.33156,0.05888 -0.484375,0.177734 -0.152815,0.110366 -0.292576,0.277314 -0.419922,0.498047 -0.118856,0.212243 -0.188098,0.335182 -0.205078,0.36914 -0.271671,0.475425 -0.483904,1.014418 -0.636719,1.617188 -0.144325,0.60277 -0.214843,1.108118 -0.214843,1.515625 0,0.466935 0.134578,0.857755 0.40625,1.171875 0.271671,0.31412 0.692907,0.470703 1.261718,0.470703 0.577302,0 1.091061,-0.153354 1.541016,-0.458984 0.449955,-0.31412 0.796767,-0.688118 1.042969,-1.121094 0.246202,-0.432976 0.36914,-0.815385 0.36914,-1.146484 0,-0.390528 -0.114527,-0.728928 -0.34375,-1.017579 -0.229222,-0.28865 -0.513926,-0.573354 -0.853515,-0.853515 -0.169795,-0.144325 -0.253907,-0.228437 -0.253906,-0.253906 0,-0.02547 0.01359,-0.05588 0.03906,-0.08984 0.03396,-0.04245 0.05078,-0.07286 0.05078,-0.08984 0,-0.03396 -0.01682,-0.05401 -0.05078,-0.0625 -0.03396,-0.01698 -0.10643,-0.02539 -0.216797,-0.02539 -0.195264,0 -0.36544,0.03364 -0.509765,0.101563 -0.144326,0.05943 -0.216797,0.140311 -0.216797,0.242187 0,0.06792 0.05047,0.15203 0.152343,0.253907 0.101877,0.101876 0.263643,0.233226 0.484375,0.394531 0.339589,0.246202 0.607471,0.480439 0.802735,0.701172 0.195263,0.220733 0.292968,0.480203 0.292968,0.777344 0,0.263181 -0.09771,0.554343 -0.292968,0.876953 -0.195264,0.31412 -0.457963,0.582001 -0.789063,0.802734 -0.322609,0.220733 -0.676556,0.332031 -1.058593,0.332031 -0.815014,0 -1.220704,-0.335171 -1.220704,-1.005859 0,-0.500894 0.06211,-0.964186 0.189454,-1.388672 0.135835,-0.424486 0.322834,-0.854133 0.560546,-1.287109 0.178285,-0.339589 0.412522,-0.683172 0.701172,-1.03125 0.02547,-0.03396 0.05911,-0.07924 0.101563,-0.138672 0.05094,-0.06792 0.07617,-0.111927 0.07617,-0.128906 0,-0.05943 -0.03364,-0.104713 -0.101563,-0.138672 -0.05943,-0.04245 -0.126717,-0.06445 -0.203125,-0.06445 z m 24.908207,0.191406 c 0.17828,0 0.31804,0.06729 0.41992,0.203125 0.11036,0.127346 0.16601,0.2807 0.16601,0.458984 0,0.297141 -0.0505,0.573434 -0.15234,0.828125 -0.40751,0.687668 -0.7815,1.268716 -1.12109,1.744141 -0.3311,0.466935 -0.70833,0.869395 -1.13282,1.208984 -0.42448,0.339589 -0.86772,0.509766 -1.32617,0.509766 -0.23771,0 -0.35547,-0.126168 -0.35547,-0.38086 0,-0.30563 0.13976,-0.721683 0.41992,-1.248046 0.28017,-0.526363 0.63216,-1.056945 1.05665,-1.591797 0.42448,-0.543343 0.8289,-0.976219 1.21093,-1.298828 0.3311,-0.288651 0.60221,-0.433594 0.81446,-0.433594 z m -33.849613,0.445312 c 0.526363,0.0849 1.07572,0.22143 1.644531,0.408203 0.577301,0.186774 1.069056,0.42424 1.476563,0.712891 0.407506,0.288651 0.611328,0.610229 0.611328,0.966797 0,0.271671 -0.200593,0.522731 -0.59961,0.751953 -0.390527,0.220733 -0.87387,0.399321 -1.451171,0.535156 -0.577302,0.127346 -1.119523,0.191407 -1.628907,0.191407 0,-0.263182 -0.0052,-0.798945 -0.01367,-1.605469 -0.0085,-0.815014 -0.02208,-1.468534 -0.03906,-1.960938 z" /><g
     id="g26"
     transform="translate(0,-0.71255766)"><rect
       style="fill:#f9f9f9;fill-opacity:1;stroke:#1a1a1a;stroke-width:0.313326;stroke-dasharray:none"
       id="rect12"
       width="9.920557"
       height="0.87948203"
       x="9.4047241"
       y="24.491051"
       ry="0.43974102" /><g
       id="g24"
       transform="matrix(1,0,0,1.1337494,0,-3.1577205)"><rect
         style="fill:#6168ff;fill-opacity:1;stroke:#1a1a1a;stroke-width:0.313326;stroke-dasharray:none"
         id="rect11"
         width="25.007811"
         height="14.454022"
         x="1.8610971"
         y="9.1552162"
         ry="1.5951465" /><path
         id="rect17"
         style="fill:#f9f9f9;fill-opacity:1;stroke:#1a1a1a;stroke-width:0.313326;stroke-dasharray:none"
         d="m 1.860913,21.284131 v 0.729914 c 0,0.883713 0.711484,1.595194 1.595193,1.595194 h 21.81779 c 0.883711,0 1.595191,-0.711481 1.595191,-1.595194 v -0.729914 z" /></g><g
       id="g23"
       transform="matrix(0.61598838,0,0,0.61598838,10.633271,1.8048453)"><path
         id="path16"
         style="fill:#ffc043;fill-opacity:1;stroke:#000000;stroke-width:0.313326;stroke-dasharray:none"
         d="m 12.277585,0.6295255 c -0.0535,8.391e-4 -0.110714,0.010262 -0.172278,0.027849 C 11.612798,0.7980912 9.634194,1.1317436 9.959603,2.081583 10.28501,3.0314229 10.531194,3.4888044 10.082659,3.9021609 9.634124,4.3155173 9.352588,4.7202299 8.824899,4.5971024 8.297211,4.4739753 7.672789,3.9818141 7.215459,4.3160173 6.758129,4.65022 5.570748,6.7081272 6.397462,7.1566626 7.224174,7.6051979 7.558786,7.4024522 7.602761,7.9565254 7.646741,8.5105981 7.796118,9.5747194 7.347583,9.7945894 6.899046,10.014459 5.922987,10.34 6.265987,11.157919 c 0.342997,0.817915 0.755933,2.313083 1.679388,1.987675 0.923454,-0.325409 0.492954,-0.64212 1.14377,-0.149609 0.650816,0.49251 1.653254,0.967859 1.248693,1.645058 -0.404562,0.677203 -0.747791,1.046616 -0.237692,1.380818 0.510099,0.334203 2.190143,1.433159 2.621088,0.676805 0.430945,-0.756353 0.624574,-1.283937 1.029135,-1.292731 0.349025,-0.0076 0.545153,-0.007 0.614631,-0.0071 0.06912,1.39e-4 0.265885,-3.32e-4 0.615279,0.0071 0.404561,0.0087 0.598189,0.536378 1.029135,1.292731 0.430946,0.756354 2.110341,-0.342602 2.62044,-0.676805 0.510099,-0.334202 0.167518,-0.703615 -0.237043,-1.380818 -0.404563,-0.677199 0.597875,-1.152548 1.248692,-1.645058 0.650815,-0.492511 0.219668,-0.1758 1.143123,0.149609 0.923455,0.325408 1.337038,-1.169757 1.680035,-1.987675 C 22.80766,10.340001 21.831602,10.014461 21.383066,9.7945904 20.93453,9.5747204 21.083913,8.5105992 21.127887,7.9565265 21.171856,7.4024528 21.505826,7.605199 22.332538,7.1566637 23.159251,6.7081283 21.971871,4.6502206 21.514541,4.3160179 21.057211,3.9818152 20.43279,4.4739759 19.905101,4.5971035 19.377412,4.720231 19.095876,4.3155184 18.647341,3.902162 18.198806,3.4888051 18.44499,3.031423 18.770397,2.0815836 19.095805,1.1317442 17.117202,0.7980919 16.624693,0.6573746 16.132183,0.51665783 15.921135,0.929647 15.622111,1.6068473 15.35919,2.1065782 14.869054,2.1458411 14.365,2.1547693 13.833075,2.1536418 13.425074,2.0450665 13.107888,1.6068473 12.846242,1.0142974 12.652017,0.6236335 12.277585,0.6295255 Z"
         sodipodi:nodetypes="sssssssssssssssscsssssssssssssssscss" /><circle
         style="fill:#ff5574;fill-opacity:1;stroke:#1a1a1a;stroke-width:0.313326;stroke-dasharray:none"
         id="path11"
         cx="14.365002"
         cy="8.7942495"
         r="4.7736683" /></g><g
       id="g25"
       transform="translate(0,-2)"><rect
         style="fill:#f9f9f9;fill-opacity:1;stroke:#000000;stroke-width:0.313326;stroke-dasharray:none"
         id="rect18"
         width="14.27389"
         height="1.436182"
         x="7.228054"
         y="18.412565"
         ry="0.71809101" /><path
         id="rect19"
         style="fill:#1a1a1a;fill-opacity:1;stroke:none;stroke-width:0.322641;stroke-dasharray:none"
         d="m 7.94569,18.680083 c -0.249654,0 -0.450773,0.201121 -0.450773,0.450774 0,0.249655 0.201119,0.450125 0.450773,0.450125 h 4.893734 v -0.900899 z m 5.024561,0 v 0.900899 h 0.357511 v -0.900899 z m 0.501291,0 v 0.900899 h 0.272018 v -0.900899 z m 0.389245,0 v 0.900899 h 0.148315 v -0.900899 z"
         sodipodi:nodetypes="sssccsccccccccccccccc" /></g></g><path
     id="text32"
     style="font-size:25.0508px;font-family:Broadway;-inkscape-font-specification:Broadway;text-align:center;letter-spacing:3.75763px;text-anchor:middle;stroke-width:1.77527"
     d="m 83.955078,5.375 c -1.369964,0 -2.647668,0.2846503 -3.830078,0.8554688 -1.622755,0.7991458 -2.876779,1.954299 -3.765625,3.4628906 -0.831764,1.4188916 -1.248047,2.9270986 -1.248047,4.5253906 0,1.565673 0.39812,3.045025 1.197266,4.439453 0.763649,1.333152 1.810569,2.375616 3.128906,3.138672 -0.263551,-0.311676 -0.396484,-0.696315 -0.396484,-1.15625 0,-0.407506 0.07052,-0.912855 0.214843,-1.515625 0.152815,-0.60277 0.365047,-1.141763 0.636719,-1.617188 0.01698,-0.03396 0.08622,-0.156898 0.205078,-0.36914 0.127346,-0.220733 0.267107,-0.38768 0.419922,-0.498047 0.152815,-0.118856 0.314581,-0.177734 0.484375,-0.177734 0.07641,0 0.143697,0.02201 0.203125,0.06445 0.06792,0.03396 0.101563,0.07925 0.101563,0.138672 0,0.01698 -0.02523,0.06099 -0.07617,0.128906 -0.04245,0.05943 -0.07609,0.104711 -0.101563,0.138672 -0.28865,0.348077 -0.522888,0.691661 -0.701172,1.03125 -0.237711,0.432975 -0.424712,0.862624 -0.560546,1.287109 -0.127346,0.424486 -0.189454,0.88778 -0.189454,1.388672 0,0.670688 0.40569,1.005859 1.220704,1.005859 0.382036,0 0.735985,-0.111298 1.058593,-0.332031 0.331099,-0.220732 0.593799,-0.488615 0.789063,-0.802734 0.121775,-0.201193 0.200242,-0.388834 0.246094,-0.566407 l -0.0039,-0.646484 c -0.04684,-0.160457 -0.124806,-0.308715 -0.242187,-0.441406 -0.195264,-0.220733 -0.463146,-0.45497 -0.802735,-0.701172 -0.220731,-0.161305 -0.382497,-0.292655 -0.484375,-0.394531 -0.101876,-0.101877 -0.152343,-0.185989 -0.152343,-0.253907 0,-0.101875 0.07247,-0.182758 0.216797,-0.242187 0.144324,-0.06792 0.314502,-0.101563 0.509765,-0.101563 0.110367,0 0.182838,0.0084 0.216797,0.02539 0.03396,0.0085 0.05078,0.02854 0.05078,0.0625 0,0.01698 -0.01682,0.0474 -0.05078,0.08984 -0.02547,0.03396 -0.03906,0.06438 -0.03906,0.08984 0,0.02547 0.08411,0.109578 0.253906,0.253906 0.189324,0.156193 0.358569,0.313743 0.513672,0.472656 l -0.02734,-3.279297 0.02344,-3.453125 c -0.128806,0.08371 -0.27088,0.163743 -0.4375,0.234375 -0.734514,0.311371 -1.69339,0.511787 -2.875,0.59961 -0.01597,0.542901 -0.02344,0.984819 -0.02344,1.328125 0,0.455079 0.01867,0.870853 0.05859,1.246093 0.01597,0.14371 0.02539,0.242943 0.02539,0.298828 0,0.127742 -0.0281,0.236397 -0.08398,0.324219 -0.05589,0.09581 -0.136446,0.142578 -0.240234,0.142578 -0.14371,0 -0.224268,-0.05051 -0.240235,-0.154297 -0.008,-0.135724 -0.01919,-0.347347 -0.03516,-0.634765 -0.008,-0.279435 -0.01172,-0.564144 -0.01172,-0.851563 l 0.01172,-1.675781 c -0.03992,0 -0.114789,0.0037 -0.226563,0.01172 -0.10379,0.008 -0.208709,0.01172 -0.3125,0.01172 -0.191611,0 -0.287109,-0.131065 -0.287109,-0.394532 0,-0.191611 0.04873,-0.287109 0.144531,-0.287109 0.03193,0 0.12743,0.02241 0.28711,0.07031 0.159676,0.0479 0.294476,0.07227 0.40625,0.07227 l -0.01172,-3.3886718 c -0.06387,-0.00798 -0.194939,-0.019189 -0.394531,-0.035156 -0.199597,-0.023951 -0.347553,-0.065207 -0.44336,-0.1210938 -0.08782,-0.055887 -0.132812,-0.1344914 -0.132812,-0.2382812 0,-0.2075801 0.04126,-0.3125 0.121094,-0.3125 0.08782,0 0.194523,0.031833 0.322265,0.095703 l 0.144531,0.072266 c 0.07984,0.031935 0.190276,0.056298 0.333985,0.072266 0.0479,-0.1277417 0.09289,-0.2157687 0.132812,-0.2636719 0.0479,-0.047903 0.135928,-0.072266 0.263672,-0.072266 0.159677,0 0.238281,0.031833 0.238281,0.095703 0,0.023951 -0.0112,0.068942 -0.03516,0.1328125 -0.02395,0.055887 -0.03516,0.110129 -0.03516,0.1660156 0.494998,0.071855 1.053041,0.2198116 1.675781,0.4433594 0.630724,0.215564 1.173828,0.4908501 1.628906,0.8261719 0.0177,0.012815 0.02985,0.026149 0.04687,0.039063 l 0.02148,-3.0722657 c 0.269099,-0.057082 0.555703,-0.085937 0.857422,-0.085937 1.280264,0 2.494739,0.2846503 3.644531,0.8554687 1.149791,0.5626639 2.076052,1.3303899 2.777344,2.3007813 0.228327,0.3180274 0.422847,0.4765624 0.585937,0.4765624 0.09785,10e-8 0.187985,-0.035984 0.269531,-0.109375 0.08155,-0.073391 0.123047,-0.1563937 0.123047,-0.2460937 0,-0.3343365 -0.409154,-0.8802988 -1.224609,-1.6386719 C 88.332467,6.1696285 86.303588,5.375 83.955078,5.375 Z M 113.3125,5.6445312 c -0.2039,10e-8 -0.33714,0.068404 -0.40234,0.2070313 -0.0653,0.1386273 -0.0977,0.4070677 -0.0977,0.8066406 l 0.0234,1.5292969 0.0254,3.4375 c -1.0764,0.05708 -2.4478,0.08594 -4.11133,0.08594 -1.8103,0 -3.13112,-0.02886 -3.96289,-0.08594 l 0.0352,-2.9394531 c -0.0844,0.018553 -0.16622,0.038369 -0.27539,0.052734 -0.73452,0.1277417 -1.14461,0.1988761 -1.23243,0.2148438 l -0.77929,0.1328125 c 0,0.4151602 0.004,0.8496077 0.0117,1.3046878 0.016,0.45508 0.0366,0.85396 0.0605,1.197266 0.0319,0.463063 0.0881,0.818906 0.16797,1.066406 0.0798,0.247499 0.12288,0.387986 0.13086,0.419922 0,0.07984 -0.0505,0.150974 -0.1543,0.214843 -0.0958,0.07186 -0.18757,0.107422 -0.27539,0.107422 -0.0479,0 -0.0892,-0.01494 -0.12109,-0.04687 -0.0319,-0.02395 -0.0601,-0.06894 -0.084,-0.132812 -0.0479,-0.111774 -0.0947,-0.319661 -0.14257,-0.623047 -0.0399,-0.303387 -0.0718,-0.638603 -0.0957,-1.005859 -0.0239,-0.327338 -0.0445,-0.705592 -0.0605,-1.136719 -0.008,-0.439113 -0.0117,-0.8623553 -0.0117,-1.2695317 -0.4471,0.071855 -0.90591,0.1598819 -1.37696,0.2636719 -0.42314,0.087822 -0.674063,0.1308594 -0.753902,0.1308594 -0.09581,0 -0.187569,-0.028097 -0.27539,-0.083984 -0.07984,-0.055887 -0.121094,-0.1307566 -0.121094,-0.2265625 0,-0.1037901 0.03557,-0.1731428 0.107422,-0.2050781 0.07185,-0.031935 0.191713,-0.046875 0.359375,-0.046875 0.119759,0 0.295819,-0.020628 0.527339,-0.060547 0.23154,-0.047903 0.37949,-0.079736 0.44336,-0.095703 0.53492,-0.1037901 0.89823,-0.1711897 1.08985,-0.203125 0,-0.167661 -0.007,-0.3867523 -0.0234,-0.6582031 -0.0159,-0.3672572 -0.0254,-0.6462783 -0.0254,-0.8378907 0,-0.3113702 0.009,-0.5510891 0.0254,-0.71875 0.0239,-0.1756447 0.0632,-0.3310714 0.11914,-0.4667969 0.0145,-0.036153 0.0325,-0.067679 0.0527,-0.095703 h -4.746099 l 0.02344,0.7089844 0.0078,1.5742187 c 2.09e-4,0.00519 0.0039,0.010452 0.0039,0.015625 -10e-7,0.0031 -0.0037,0.00663 -0.0039,0.00977 l 0.0059,0.9804687 0.02344,2.8027349 -0.0293,5.066406 c 0.399932,-0.08146 0.644311,-0.121513 1.283203,-0.265625 0.06792,-0.01698 0.121614,-0.07781 0.164063,-0.179688 0.05094,-0.101876 0.10336,-0.152344 0.154297,-0.152344 0.09339,0 0.185909,0.05565 0.279297,0.166016 0.101876,0.101876 0.152343,0.207992 0.152343,0.318359 0,0.144325 -0.06406,0.25367 -0.191406,0.330078 -0.118856,0.07641 -0.339501,0.13724 -0.662109,0.179688 -0.705459,0.122688 -1.039308,0.181416 -1.183594,0.207031 l -0.02734,4.933594 h 7.498045 l -0.0176,-1.511719 c -0.19853,0.208942 -0.41483,0.413401 -0.65234,0.611328 -0.50939,0.415996 -1.04515,0.623047 -1.60547,0.623047 -0.27168,0 -0.48391,-0.08411 -0.63672,-0.253906 -0.14433,-0.169795 -0.2168,-0.390439 -0.2168,-0.662109 0,-0.339588 0.15335,-0.802881 0.45899,-1.388672 0.30562,-0.594279 0.69645,-1.192151 1.17187,-1.794922 0.47543,-0.611259 0.95036,-1.113378 1.42578,-1.503906 0.002,-0.0017 0.004,-0.0022 0.006,-0.0039 l -0.008,-0.755858 -0.0117,-3.376953 5.24805,-0.06055 2.38476,0.04883 0.46485,0.01172 v 2.27539 l -0.0371,6.140625 -0.0117,1.039063 c 0,0.301717 0.0324,0.510836 0.0977,0.625 0.0734,0.114164 0.20307,0.169922 0.39062,0.169922 0.17941,0 0.2984,-0.05219 0.35547,-0.158205 0.0653,-0.106009 0.0977,-0.306045 0.0977,-0.599609 l -0.0234,-3.193359 -0.0371,-4.548828 0.0371,-4.3671875 0.0234,-2.7148438 0.0117,-0.8320312 c 0,-0.4974275 -0.15497,-0.7460937 -0.46484,-0.7460938 z M 33.884766,5.8769531 c -0.334333,0.00815 -0.53437,0.018847 -0.59961,0.035156 -0.228328,0.032618 -0.341797,0.1804606 -0.341797,0.4414062 0,0.2935638 0.194519,0.4394532 0.585938,0.4394532 l 0.34375,-0.011719 2.310547,-0.048828 1.615234,-0.037109 0.03711,2.8144531 0.03711,3.3144534 -0.07422,9.748047 h 7.460938 l -0.03711,-8.414063 0.03711,-3.632812 0.0625,-3.8300785 h 0.24414 l 2.8125,0.048828 1.064453,0.037109 c 0.415883,0 0.623047,-0.1387609 0.623047,-0.4160156 0,-0.2120181 -0.08105,-0.350779 -0.24414,-0.4160156 -0.09785,-0.040773 -0.407797,-0.064111 -0.929688,-0.072266 z m 21.445312,0 0.04102,3.1152344 C 55.461746,8.7812099 55.608599,8.579118 55.830078,8.390625 56.205319,8.071271 56.636031,7.8203473 57.123047,7.6367188 57.610061,7.4530901 57.986533,7.3613281 58.25,7.3613281 c 0.271451,0 0.40625,0.078604 0.40625,0.2382813 0,0.095806 -0.03183,0.2044609 -0.0957,0.3242187 -0.06387,0.1117739 -0.159371,0.1679688 -0.287109,0.1679688 -0.0479,0 -0.100361,-0.016893 -0.15625,-0.048828 -0.05589,-0.039919 -0.112082,-0.058594 -0.167969,-0.058594 -0.159677,0 -0.410601,0.050507 -0.753907,0.1542969 -0.343305,0.10379 -0.654159,0.2592167 -0.933593,0.4667969 -0.279435,0.20758 -0.419922,0.4604569 -0.419922,0.7558593 0,0.1916124 0.108654,0.3358343 0.324219,0.4316407 0.223546,0.087822 0.633632,0.1982591 1.232422,0.3339843 0.07185,0.02395 0.144941,0.04458 0.216796,0.06055 0.07185,0.008 0.13552,0.01919 0.191407,0.03516 0.614756,0.14371 1.084771,0.308559 1.412109,0.492188 0.327338,0.183628 0.492187,0.458914 0.492188,0.826172 0,0.351288 -0.144222,0.690239 -0.431641,1.017578 -0.279435,0.319353 -0.650218,0.574012 -1.113281,0.765625 -0.463064,0.199596 -0.946237,0.300781 -1.449219,0.300781 -0.343306,0 -0.575555,-0.03183 -0.695313,-0.0957 -0.119758,-0.06387 -0.179687,-0.1519 -0.179687,-0.263672 0,-0.07185 0.09176,-0.195449 0.275391,-0.371094 0.183627,-0.183629 0.307222,-0.27539 0.371093,-0.27539 0.09581,0 0.144532,0.01867 0.144531,0.05859 10e-7,0.03193 -0.02063,0.06376 -0.06055,0.0957 -0.03992,0.03193 -0.05859,0.06003 -0.05859,0.08398 0,0.03193 0.04677,0.06376 0.142578,0.0957 0.10379,0.03193 0.227385,0.04883 0.371094,0.04883 0.335321,0 0.670537,-0.05993 1.005859,-0.179687 0.343306,-0.127742 0.622326,-0.292591 0.837891,-0.492188 0.215564,-0.199596 0.324218,-0.411218 0.324218,-0.634766 0,-0.215563 -0.0674,-0.385931 -0.203124,-0.513671 -0.135726,-0.127742 -0.308045,-0.219504 -0.515626,-0.275391 -0.199595,-0.06387 -0.538546,-0.1519 -1.017578,-0.263672 -0.526933,-0.119758 -0.938972,-0.224678 -1.234375,-0.3125 -0.287418,-0.09581 -0.517715,-0.209977 -0.693359,-0.3457031 -0.0628,-0.051381 -0.110011,-0.1093314 -0.150391,-0.1699219 l 0.04687,3.658203 -0.04883,4.378906 -0.01367,4.085938 -0.01172,0.634766 H 69.25 c 0.619747,-0.0082 0.956592,-0.01528 1.013672,-0.02344 0.244636,-0.03262 0.367187,-0.171379 0.367187,-0.416016 0,-0.293563 -0.239585,-0.441406 -0.720703,-0.441406 l -2.935547,0.03711 -4.146484,0.04883 -0.08594,-8.439453 v -0.302735 c -0.02887,-0.04895 -0.05436,-0.102839 -0.07422,-0.166015 -0.07984,-0.279435 -0.119141,-0.721353 -0.119141,-1.328125 0,-0.566854 0.07113,-1.209188 0.214844,-1.9277349 0.0042,-0.019979 0.0094,-0.033018 0.01367,-0.052734 l 0.03711,-2.8886719 6.128906,0.085937 h 0.08594 c 0.3588,0 0.537109,-0.1442783 0.537109,-0.4296875 0,-0.2283274 -0.09369,-0.3670883 -0.28125,-0.4160156 -0.08155,-0.024464 -0.411261,-0.035156 -0.990234,-0.035156 z m 47.259762,0 c 7.1e-4,0.010051 0.006,0.012207 0.006,0.023437 0,0.047903 -0.0206,0.1864372 -0.0605,0.4179688 -0.0399,0.2315315 -0.0586,0.5386502 -0.0586,0.921875 0,0.2954024 0.008,0.6268835 0.0234,0.9941406 l 0.0117,0.3242188 c 0.35927,-0.055887 1.06901,-0.2038442 2.13086,-0.4433594 0.0639,-0.015968 0.11632,-0.072163 0.15625,-0.1679688 0.0112,-0.022447 0.0219,-0.033688 0.0332,-0.050781 l 0.0176,-1.3847656 0.0117,-0.6347657 z M 79.613281,8.4277344 c 0.01597,0.4630633 0.02912,1.0773004 0.03711,1.8437496 0.008,0.758466 0.01172,1.260313 0.01172,1.507813 0.479032,0 0.990302,-0.05993 1.533203,-0.179688 0.542903,-0.12774 0.997977,-0.294373 1.365235,-0.501953 0.186566,-0.107176 0.326204,-0.218778 0.419922,-0.335937 l 0.0059,-0.8378909 C 82.890743,9.7678378 82.745341,9.6196651 82.548828,9.4804688 82.165595,9.2090178 81.701105,8.9861916 81.158203,8.8105469 80.623285,8.6349022 80.10828,8.5075729 79.613281,8.4277344 Z m -10.291015,1.9628906 -0.941407,0.01172 -1.480468,0.02539 c 0.01512,0.331388 0.03025,0.609241 0.04687,0.833985 l 1.445312,0.0098 0.966797,0.02344 c 0.538201,0 0.806641,-0.158535 0.806641,-0.476563 0,-0.171247 -0.05576,-0.28667 -0.169922,-0.34375 -0.106009,-0.05708 -0.331337,-0.08398 -0.673828,-0.08398 z m -2.951172,0.04492 -0.835938,0.01563 c -0.05191,0.09417 -0.0933,0.178346 -0.148437,0.27539 -0.106813,0.187991 -0.214941,0.349711 -0.322266,0.523438 l 1.332031,0.0078 c -0.0092,-0.221697 -0.01824,-0.511059 -0.02539,-0.822265 z m -1.285156,0.02148 -0.986329,0.01758 -0.996093,-0.0078 c -0.02246,0.237125 -0.03577,0.495961 -0.04297,0.769531 l 1.544922,0.0098 c 0.161051,-0.243885 0.320889,-0.509274 0.480469,-0.789063 z m 39.716792,6.91211 c -0.29541,0.283674 -0.59889,0.609154 -0.91796,1.017578 -0.42449,0.534852 -0.77649,1.065434 -1.05665,1.591797 -0.28014,0.526361 -0.41992,0.942417 -0.41992,1.248046 0,0.254692 0.11776,0.38086 0.35547,0.38086 0.45844,0 0.90169,-0.170177 1.32617,-0.509766 0.27004,-0.216029 0.51402,-0.467047 0.7461,-0.734375 z M 91.611328,17.47265 c -0.1794,0 -0.347016,0.14589 -0.501953,0.439453 -0.2691,0.505583 -0.627672,1.024642 -1.076172,1.554688 -0.440346,0.530045 -0.867321,0.953457 -1.283203,1.271484 -0.374163,0.284175 -0.786378,0.528738 -1.226562,0.744141 l 0.03516,0.49414 c 0,0.118857 -0.02523,0.221744 -0.07617,0.306641 -0.02454,0.04498 -0.05949,0.07812 -0.103516,0.101563 1.006821,-0.409105 1.908813,-0.994528 2.703125,-1.757813 0.481118,-0.464809 0.922693,-0.98548 1.322266,-1.564453 0.407727,-0.587127 0.611328,-1.00341 0.611328,-1.248047 0,-0.228328 -0.135196,-0.341797 -0.404297,-0.341797 z m -8.609375,3.650391 c -0.207722,0.258918 -0.455277,0.494058 -0.751953,0.701172 -0.449956,0.305629 -0.963714,0.458984 -1.541016,0.458984 -0.133138,0 -0.256104,-0.01017 -0.373046,-0.02734 0.06142,0.02728 0.119208,0.05774 0.18164,0.08398 1.149792,0.489273 2.295863,0.734375 3.4375,0.734375 0.782837,0 1.597239,-0.118987 2.445313,-0.355469 0.328515,-0.09115 0.644508,-0.201858 0.953125,-0.326172 -0.04301,0.01801 -0.09093,0.03125 -0.150391,0.03125 -0.144326,0 -0.238801,-0.192181 -0.28125,-0.574219 -0.003,-0.02715 -0.005,-0.07078 -0.0078,-0.09961 -0.129245,0.05082 -0.25638,0.104774 -0.390624,0.150391 -0.839919,0.285409 -1.659839,0.427734 -2.458985,0.427734 -0.277255,0 -0.628698,-0.02886 -1.052734,-0.08594 z" /><text
     xml:space="preserve"
     style="font-style:normal;font-variant:normal;font-weight:normal;font-stretch:normal;font-size:9.91964px;font-family:Broadway;-inkscape-font-specification:Broadway;text-align:center;letter-spacing:1.48795px;text-anchor:middle;fill:none;fill-opacity:1;stroke:#cccccc;stroke-width:0.0743975;stroke-dasharray:none"
     x="146.80394"
     y="22.838432"
     id="text36"><tspan
       sodipodi:role="line"
       id="tspan36"
       x="147.54791"
       y="22.838432"
       style="fill:#000000;stroke-width:0.0743975">SUPPORT</tspan></text><text
     xml:space="preserve"
     style="font-style:normal;font-variant:normal;font-weight:normal;font-stretch:normal;font-size:9.91964px;font-family:Broadway;-inkscape-font-specification:Broadway;text-align:center;letter-spacing:1.48795px;text-anchor:middle;fill:none;fill-opacity:1;stroke:#cccccc;stroke-width:0.0743975;stroke-dasharray:none"
     x="136.53459"
     y="12.764215"
     id="text37"><tspan
       sodipodi:role="line"
       id="tspan37"
       x="137.27856"
       y="12.764215"
       style="fill:#000000;stroke-width:0.0743975">NICAL</tspan></text><text
     xml:space="preserve"
     style="font-style:normal;font-variant:normal;font-weight:normal;font-stretch:normal;font-size:9.91964px;font-family:Broadway;-inkscape-font-specification:Broadway;text-align:center;letter-spacing:1.48795px;text-anchor:middle;fill:#666666;fill-opacity:1;stroke:none;stroke-width:0.0743975;stroke-dasharray:none"
     x="169.98529"
     y="12.701248"
     id="text38"><tspan
       sodipodi:role="line"
       id="tspan38"
       x="170.72926"
       y="12.701248"
       style="fill:#666666;stroke:none;stroke-width:0.0743975">IT</tspan></text><metadata
     id="metadata38"><rdf:RDF><cc:Work
         rdf:about=""><dc:title>logo</dc:title></cc:Work></rdf:RDF></metadata></svg>
